HIERARCHY
ROOT Hips
{
	OFFSET 0.000000 0.000000 0.000000
	CHANNELS 6 Xposition Yposition Zposition Xrotation Yrotation Zrotation
	JOINT LeftUpLeg_virtual
	{
		OFFSET 0.000000 0.000000 0.000000
		CHANNELS 3 Xrotation Yrotation Zrotation
		JOINT LeftUpLeg
		{
			OFFSET 11.394100 -6.187798 -0.413800
			CHANNELS 3 Xrotation Yrotation Zrotation
			JOINT LeftLeg
			{
				OFFSET 0.430247 -32.302673 3.732800
				CHANNELS 3 Xrotation Yrotation Zrotation
				JOINT LeftFoot
				{
					OFFSET -0.430247 -48.264931 -6.423300
					CHANNELS 3 Xrotation Yrotation Zrotation
					JOINT LeftToeBase
					{
						OFFSET 4.230900 -16.068199 23.438400
						CHANNELS 3 Xrotation Yrotation Zrotation
						JOINT LeftToe_End
						{
							OFFSET 4.510700 0.695400 19.974600
							CHANNELS 3 Xrotation Yrotation Zrotation
							End Site
							{
								OFFSET 0 0 0
							}
						}
					}
				}
			}
		}
	}
	JOINT RightUpLeg_virtual
	{
		OFFSET 0.000000 0.000000 0.000000
		CHANNELS 3 Xrotation Yrotation Zrotation
		JOINT RightUpLeg
		{
			OFFSET -11.333700 -6.187798 -0.413800
			CHANNELS 3 Xrotation Yrotation Zrotation
			JOINT RightLeg
			{
				OFFSET -0.430392 -32.302628 3.733000
				CHANNELS 3 Xrotation Yrotation Zrotation
				JOINT RightFoot
				{
					OFFSET 0.430392 -48.264973 -6.423500
					CHANNELS 3 Xrotation Yrotation Zrotation
					JOINT RightToeBase
					{
						OFFSET -4.230900 -16.068199 23.438400
						CHANNELS 3 Xrotation Yrotation Zrotation
						JOINT RightToe_End
						{
							OFFSET -4.510700 0.695400 19.974600
							CHANNELS 3 Xrotation Yrotation Zrotation
							End Site
							{
								OFFSET 0 0 0
							}
						}
					}
				}
			}
		}
	}
	JOINT Spine_virtual
	{
		OFFSET 0.000000 0.000000 0.000000
		CHANNELS 3 Xrotation Yrotation Zrotation
		JOINT Spine
		{
			OFFSET -0.002400 12.777504 0.315300
			CHANNELS 3 Xrotation Yrotation Zrotation
			JOINT Spine1
			{
				OFFSET -0.002067 5.816869 0.032633
				CHANNELS 3 Xrotation Yrotation Zrotation
				JOINT Spine1_split
				{
					OFFSET -0.002067 5.816869 0.032633
					CHANNELS 3 Xrotation Yrotation Zrotation
					JOINT Spine2
					{
						OFFSET -0.002067 5.816869 0.032633
						CHANNELS 3 Xrotation Yrotation Zrotation
						JOINT Neck_virtual
						{
							OFFSET 0.000000 0.000000 0.000000
							CHANNELS 3 Xrotation Yrotation Zrotation
							JOINT Neck
							{
								OFFSET -0.003700 21.199493 -0.826900
								CHANNELS 3 Xrotation Yrotation Zrotation
								JOINT Head
								{
									OFFSET 0.000000 20.442200 4.834800
									CHANNELS 3 Xrotation Yrotation Zrotation
									JOINT HeadTop_End
									{
										OFFSET 0.000000 34.668396 4.968400
										CHANNELS 3 Xrotation Yrotation Zrotation
										End Site
										{
											OFFSET 0 0 0
										}
									}
								}
							}
						}
						JOINT LeftShoulder_virtual
						{
							OFFSET 0.000000 0.000000 0.000000
							CHANNELS 3 Xrotation Yrotation Zrotation
							JOINT LeftShoulder
							{
								OFFSET 3.288150 8.794197 -1.372250
								CHANNELS 3 Xrotation Yrotation Zrotation
								JOINT LeftShoulder_split
								{
									OFFSET 3.288150 8.794197 -1.372250
									CHANNELS 3 Xrotation Yrotation Zrotation
									JOINT LeftArm
									{
										OFFSET 11.953299 -2.279007 -0.146200
										CHANNELS 3 Xrotation Yrotation Zrotation
										JOINT LeftForeArm
										{
											OFFSET 18.448900 0.000000 0.000000
											CHANNELS 3 Xrotation Yrotation Zrotation
											JOINT LeftHand
											{
												OFFSET 29.527798 0.000000 0.000000
												CHANNELS 3 Xrotation Yrotation Zrotation
												End Site
												{
													OFFSET 0 0 0
												}
											}
										}
									}
								}
							}
						}
						JOINT RightShoulder_virtual
						{
							OFFSET 0.000000 0.000000 0.000000
							CHANNELS 3 Xrotation Yrotation Zrotation
							JOINT RightShoulder
							{
								OFFSET -3.249400 8.794197 -1.372250
								CHANNELS 3 Xrotation Yrotation Zrotation
								JOINT RightShoulder_split
								{
									OFFSET -3.249400 8.794197 -1.372250
									CHANNELS 3 Xrotation Yrotation Zrotation
									JOINT RightArm
									{
										OFFSET -11.953299 -2.279007 -0.146200
										CHANNELS 3 Xrotation Yrotation Zrotation
										JOINT RightForeArm
										{
											OFFSET -18.448900 0.000000 0.000000
											CHANNELS 3 Xrotation Yrotation Zrotation
											JOINT RightHand
											{
												OFFSET -29.527802 0.000000 0.000000
												CHANNELS 3 Xrotation Yrotation Zrotation
												End Site
												{
													OFFSET 0 0 0
												}
											}
										}
									}
								}
							}
						}
					}
				}
			}
		}
	}
}
MOTION
Frames: 4
Frame Time: 0.03333333
-0.299708 104.497757 -3.674435 0.000000 0.000000 0.000000 -86.872329 -6.519470 -0.920877 2.250073 22.071572 12.904255 -2.361797 0.221502 3.556393 17.694606 27.149206 -20.967625 -2.429881 -0.548623 0.041708 0.000000 0.000000 0.000000 -89.066370 -2.971598 1.240334 0.012797 -24.760518 -16.070646 0.145225 -1.999439 -4.792812 28.937975 -29.778027 26.939972 -9.794864 1.286665 -5.641754 0.000000 0.000000 0.000000 -87.167100 -6.616453 -2.460454 1.213819 -0.357602 -0.124476 -1.377308 0.328879 -0.200326 0.737434 0.891548 -0.320922 0.000000 0.000000 0.000000 -1.392810 0.393727 -0.238287 -6.237229 4.155204 -8.462954 5.742088 8.734416 -13.046644 0.000000 0.000000 0.000000 -0.441697 0.391701 -0.080329 0.412243 -5.794082 -0.723455 -0.492641 1.682432 -2.903889 44.235471 -42.019669 -32.580873 4.951380 -86.275480 4.327449 0.000000 0.000000 0.000000 -0.311556 0.706099 -0.424599 0.393022 0.438047 2.704511 7.263756 7.551495 -0.837273 -4.945569 2.095731 81.057256 -179.266470 54.908003 -179.856271 0.000000 0.000000 0.000000 
-0.284879 104.487633 -3.678860 0.000000 0.000000 0.000000 -86.884473 -6.546080 -0.916735 2.276134 22.019744 12.880559 -2.363777 0.189751 3.553707 17.710076 27.139991 -20.966572 -2.438905 -0.551810 0.018733 0.000000 0.000000 0.000000 -89.061589 -2.979781 1.259156 -0.037964 -24.753869 -16.091550 0.182174 -2.013233 -4.810550 28.943876 -29.814616 26.935138 -9.738689 1.286027 -5.648490 0.000000 0.000000 0.000000 -87.180248 -6.630277 -2.459231 1.217170 -0.358474 -0.113403 -1.379885 0.331386 -0.199826 0.744684 0.886525 -0.311812 0.000000 0.000000 0.000000 -1.401331 0.401151 -0.243317 -6.217709 4.206259 -8.463646 6.312541 8.892697 -13.419521 0.000000 0.000000 0.000000 -0.430399 0.387814 -0.078337 0.402272 -5.816122 -0.773378 -0.495460 1.692833 -2.804761 44.195685 -42.026140 -32.660609 4.869656 -86.243494 4.252519 0.000000 0.000000 0.000000 -0.303795 0.709950 -0.425396 0.399429 0.448237 2.727617 7.259881 7.566308 -0.844384 -4.904625 2.074597 80.961559 -179.263601 54.846088 -179.847159 0.000000 0.000000 0.000000 
-0.269123 104.472855 -3.689545 0.000000 0.000000 0.000000 -86.893189 -6.578335 -0.918019 2.289224 21.962116 12.857795 -2.357745 0.156108 3.552018 17.718877 27.131098 -20.965773 -2.446966 -0.555816 -0.003640 0.000000 0.000000 0.000000 -89.054697 -2.999070 1.269220 -0.094697 -24.751868 -16.108631 0.206703 -2.027604 -4.827792 28.942479 -29.852865 26.923851 -9.683345 1.284077 -5.651322 0.000000 0.000000 0.000000 -87.188000 -6.649525 -2.457465 1.212881 -0.356717 -0.098191 -1.385481 0.337591 -0.199820 0.751233 0.899290 -0.291372 0.000000 0.000000 0.000000 -1.417389 0.409880 -0.246663 -6.192834 4.279747 -8.476216 7.068429 9.079672 -13.924165 0.000000 0.000000 0.000000 -0.421956 0.386866 -0.073015 0.388214 -5.822367 -0.832975 -0.493039 1.692999 -2.712907 44.177349 -42.040736 -32.687568 4.695414 -86.217888 4.084051 0.000000 0.000000 0.000000 -0.298331 0.714118 -0.429432 0.401715 0.415186 2.739823 7.279131 7.600631 -0.845480 -4.861168 2.054576 80.873524 -179.251567 54.770440 -179.853784 0.000000 0.000000 0.000000 
-0.254025 104.456085 -3.707005 0.000000 0.000000 0.000000 -86.897061 -6.612194 -0.925011 2.287717 21.903186 12.838202 -2.346425 0.121084 3.551512 17.721117 27.122382 -20.967660 -2.455881 -0.560420 -0.023606 0.000000 0.000000 0.000000 -89.044398 -3.025375 1.270492 -0.152098 -24.756207 -16.120496 0.211882 -2.041595 -4.842654 28.937292 -29.886213 26.909571 -9.633026 1.281451 -5.652455 0.000000 0.000000 0.000000 -87.188581 -6.673502 -2.458071 1.200798 -0.354019 -0.079510 -1.392758 0.344443 -0.199725 0.750360 0.921414 -0.271032 0.000000 0.000000 0.000000 -1.438498 0.418268 -0.247416 -6.180590 4.366298 -8.490557 7.901755 9.257211 -14.493368 0.000000 0.000000 0.000000 -0.417941 0.387778 -0.065043 0.373051 -5.811629 -0.896047 -0.485943 1.684053 -2.640782 44.187120 -42.063812 -32.669782 4.434896 -86.195225 3.827575 0.000000 0.000000 0.000000 -0.296010 0.716967 -0.435586 0.400405 0.343252 2.738039 7.315205 7.638249 -0.840313 -4.824703 2.038822 80.814095 -179.231855 54.703631 -179.874931 0.000000 0.000000 0.000000 
